<svg xmlns="http://www.w3.org/2000/svg" width="20" height="20" viewBox="0 0 326 200">
  <metadata><?xpacket begin="﻿" id="W5M0MpCehiHzreSzNTczkc9d"?>
<x:xmpmeta xmlns:x="adobe:ns:meta/" x:xmptk="Adobe XMP Core 5.6-c138 79.159824, 2016/09/14-01:09:01        ">
   <rdf:RDF xmlns:rdf="http://www.w3.org/1999/02/22-rdf-syntax-ns#">
      <rdf:Description rdf:about=""/>
   </rdf:RDF>
</x:xmpmeta>
                                                                                                    
                                                                                                    
                                                                                                    
                                                                                                    
                                                                                                    
                                                                                                    
                                                                                                    
                                                                                                    
                                                                                                    
                                                                                                    
                                                                                                    
                                                                                                    
                                                                                                    
                                                                                                    
                                                                                                    
                                                                                                    
                                                                                                    
                                                                                                    
                                                                                                    
                                                                                                    
                           
<?xpacket end="w"?></metadata>
<defs>
    <style>
      .cls-1 {
        fill: #fff;
        fill-rule: evenodd;
      }
    </style>
  </defs>
  <path id="USB" class="cls-1" d="M362.012,200.975a4.289,4.289,0,0,1-2.286,3.827l-45.281,27.3a4.474,4.474,0,0,1-2.287.715,4.741,4.741,0,0,1-2.288-.561,4.593,4.593,0,0,1-2.286-3.981V210.109H186.276c12.858,20.21,20.583,54.555,35.371,54.555h13.569V250.986a4.478,4.478,0,0,1,4.523-4.541H285.02a4.477,4.477,0,0,1,4.522,4.541v45.472A4.477,4.477,0,0,1,285.02,301H239.739a4.477,4.477,0,0,1-4.523-4.541V282.831H221.647c-38.319,0-41.216-72.722-63.373-72.722H107.3a36.412,36.412,0,1,1,0-18.218c19.87,0,22.31,4.848,37.912-30.824,20.379-45.47,29.527-41.9,55.343-41.9a27.3,27.3,0,1,1,0,18.269H185.411c-14.788,0-22.512,34.4-35.37,54.555H307.635V173.825a4.593,4.593,0,0,1,2.286-3.981,4.254,4.254,0,0,1,4.524.153l45.281,27.3a3.9,3.9,0,0,1,2.286,3.674h0Zm0,0" transform="translate(-36 -101)"/>
</svg>
