<?xml version="1.0" encoding="utf-8"?>
<!-- Generator: Adobe Illustrator 22.0.0, SVG Export Plug-In . SVG Version: 6.00 Build 0)  -->
<svg version="1.1" id="图层_1" xmlns="http://www.w3.org/2000/svg" xmlns:xlink="http://www.w3.org/1999/xlink" x="0px" y="0px"
	 viewBox="0 0 1519 578" style="enable-background:new 0 0 1519 578;" xml:space="preserve">
<style type="text/css">
	.st0{fill:#FFFFFF;}
</style>
<g>
	<polygon class="st0" points="1519,147.9 1431.7,147.9 1377.8,147.9 1290.5,147.9 1290.5,201.7 1377.8,201.7 1377.8,430.2 
		1431.7,430.2 1431.7,201.7 1519,201.7 	"/>
	<path class="st0" d="M1050.6,147.9l-82.7,82.7v116.9l82.7,82.7h116.9l82.7-82.7V230.6l-82.7-82.7H1050.6z M1196.3,325.2l-51.1,51.1
		h-72.3l-51.1-51.1v-72.3l51.1-51.1h72.3l51.1,51.1V325.2z"/>
	<polygon class="st0" points="1095.1,255.4 1075.4,275.1 1075.4,303 1095.1,322.7 1123,322.7 1142.7,303 1142.7,275.1 1123,255.4 	
		"/>
	<path class="st0" d="M813.3,147.9h-18h-55.8h-53.8v53.8v60.4v53.8v60.4v53.8h53.8h55.8h18h51.6l49.2-49.2v-69.6L891.8,289
		l22.3-22.3v-69.6l-49.2-49.2H813.3z M739.4,201.7h6.6v0h71.5h2.1h22.9l17.7,17.7v25l-17.7,17.7h-22.9h-2.1h-22.3H746v0h-6.6V201.7z
		 M860.2,358.6l-17.7,17.7h-22.9h-2.1H746v0h-6.6v-60.4h6.6v0h49.2h22.3h2.1h22.9l17.7,17.7V358.6z"/>
	<path class="st0" d="M432.2,147.8l-82.7,82.7v116.9l82.7,82.7h116.9l82.7-82.7V230.5l-82.7-82.7H432.2z M578,325.1l-51.1,51.1
		h-72.3l-51.1-51.1v-72.3l51.1-51.1h72.3l51.1,51.1V325.1z"/>
	<polygon class="st0" points="476.7,255.3 457,275 457,302.9 476.7,322.6 504.6,322.6 524.3,302.9 524.3,275 504.6,255.3 	"/>
	<polygon class="st0" points="255.4,147.9 237.6,334.8 181.5,215.1 181.5,215.1 127.7,215.1 127.7,215.1 71.6,334.8 53.8,147.9 
		0,147.9 26.9,430.2 80.7,430.2 154.6,272.5 228.5,430.1 228.5,430.2 282.3,430.2 282.3,430.2 282.3,430.2 282.3,430.1 309.2,147.9 
			"/>
</g>
</svg>
