<svg xmlns="http://www.w3.org/2000/svg" version="1.1" width="20px" height="20px">
    <svg viewBox="0 0 1024 1024">
        <path d="M340.821333 609.245867a34.133333 34.133333 0 1 1-48.264533 48.264533l-146.0224-146.0224a34.133333 34.133333 0 0 1 0-48.264533L292.522667 317.201067a34.133333 34.133333 0 1 1 48.264533 48.264533l-121.856 121.890133 121.856 121.856z m351.8464-243.780267a34.133333 34.133333 0 0 1 48.264534-48.264533l146.0224 146.0224a34.133333 34.133333 0 0 1 0 48.264533l-146.0224 146.0224a34.133333 34.133333 0 0 1-48.264534-48.264533l121.856-121.890134-121.856-121.856z m-216.849066 328.874667a34.133333 34.133333 0 1 1-64.170667-23.313067l136.533333-375.466667a34.133333 34.133333 0 0 1 64.170667 23.313067l-136.533333 375.466667z" fill="#4C97FF"></path>
    </svg>
</svg>
